<svg xmlns="http://www.w3.org/2000/svg" viewBox="0 0 800 600" fill="none" role="img" aria-label="Modern hotel lobby">
  <defs>
    <linearGradient id="sky" x1="0" y1="0" x2="0" y2="1">
      <stop offset="0%" stop-color="#1e1b4b"/>
      <stop offset="55%" stop-color="#312e81"/>
      <stop offset="100%" stop-color="#4338ca"/>
    </linearGradient>
    <linearGradient id="glass" x1="0" y1="0" x2="1" y2="1">
      <stop offset="0%" stop-color="#818cf8" stop-opacity=".35"/>
      <stop offset="100%" stop-color="#c4b5fd" stop-opacity=".12"/>
    </linearGradient>
    <linearGradient id="warm" x1="0" y1="0" x2="0" y2="1">
      <stop offset="0%" stop-color="#fbbf24" stop-opacity=".9"/>
      <stop offset="100%" stop-color="#f59e0b" stop-opacity=".5"/>
    </linearGradient>
  </defs>
  <rect width="800" height="600" fill="url(#sky)"/>
  <circle cx="120" cy="90" r="48" fill="#fde68a" opacity=".85"/>
  <path d="M0 420 Q200 360 400 390 T800 410 V600 H0Z" fill="#1e293b" opacity=".55"/>
  <path d="M0 460 Q220 420 420 440 T800 455 V600 H0Z" fill="#0f172a" opacity=".75"/>
  <rect x="140" y="170" width="520" height="290" rx="18" fill="#0f172a" opacity=".35"/>
  <rect x="160" y="190" width="480" height="250" rx="14" fill="url(#glass)" stroke="#a5b4fc" stroke-opacity=".35"/>
  <rect x="200" y="230" width="90" height="130" rx="6" fill="#312e81" stroke="#c7d2fe" stroke-opacity=".25"/>
  <rect x="310" y="230" width="90" height="130" rx="6" fill="#312e81" stroke="#c7d2fe" stroke-opacity=".25"/>
  <rect x="420" y="230" width="90" height="130" rx="6" fill="#312e81" stroke="#c7d2fe" stroke-opacity=".25"/>
  <rect x="530" y="230" width="90" height="130" rx="6" fill="#312e81" stroke="#c7d2fe" stroke-opacity=".25"/>
  <rect x="330" y="380" width="140" height="60" rx="8" fill="#1e293b" opacity=".8"/>
  <path d="M120 440 H680" stroke="#fde68a" stroke-opacity=".35" stroke-width="3"/>
  <circle cx="250" cy="470" r="8" fill="url(#warm)"/>
  <circle cx="400" cy="470" r="8" fill="url(#warm)"/>
  <circle cx="550" cy="470" r="8" fill="url(#warm)"/>
  <path d="M360 120 h80 l20 40 h-120z" fill="#e0e7ff" opacity=".9"/>
  <rect x="388" y="88" width="24" height="32" rx="2" fill="#c7d2fe"/>
</svg>
